<svg width="107" height="31" viewBox="0 0 107 31" fill="none" xmlns="http://www.w3.org/2000/svg">
<path d="M18.3 21.95C18.3 22.49 18.16 23.0233 17.88 23.55C17.6 24.07 17.2 24.5467 16.68 24.98C16.16 25.4067 15.5334 25.7467 14.8 26C14.0734 26.26 13.2534 26.39 12.34 26.39C10.8534 26.39 9.56669 26.08 8.48003 25.46C7.40003 24.84 6.56336 23.98 5.97003 22.88C5.38336 21.78 5.09003 20.5133 5.09003 19.08C5.09003 18.0067 5.26336 17.0167 5.61003 16.11C5.96336 15.2033 6.45669 14.4133 7.09003 13.74C7.73003 13.0667 8.47336 12.5433 9.32003 12.17C10.1734 11.7967 11.0967 11.61 12.09 11.61C12.71 11.61 13.21 11.6633 13.59 11.77C13.9767 11.8767 14.2867 11.9867 14.52 12.1C14.7534 12.2067 14.9534 12.26 15.12 12.26C15.3067 12.26 15.4634 12.21 15.59 12.11C15.7167 12.0033 15.8467 11.9 15.98 11.8C16.12 11.7 16.2834 11.65 16.47 11.65C16.63 11.65 16.7634 11.7 16.87 11.8C16.9767 11.9 17.0634 12.0733 17.13 12.32L18.15 15.91C18.21 16.1033 18.1867 16.28 18.08 16.44C17.98 16.5933 17.83 16.6967 17.63 16.75C17.41 16.7967 17.21 16.78 17.03 16.7C16.8567 16.62 16.7234 16.47 16.63 16.25C16.2834 15.4367 15.9034 14.8033 15.49 14.35C15.0834 13.8967 14.6567 13.58 14.21 13.4C13.7634 13.2133 13.31 13.12 12.85 13.12C12.3634 13.12 11.9267 13.2367 11.54 13.47C11.16 13.7033 10.8334 14.0433 10.56 14.49C10.2934 14.93 10.09 15.4667 9.95003 16.1C9.81003 16.7267 9.74003 17.4333 9.74003 18.22C9.74003 19.5067 9.91003 20.58 10.25 21.44C10.59 22.3 11.06 22.9433 11.66 23.37C12.2667 23.7967 12.9667 24.01 13.76 24.01C14.4667 24.01 15.11 23.8267 15.69 23.46C16.2767 23.0867 16.7534 22.5433 17.12 21.83C17.2267 21.6233 17.3434 21.49 17.47 21.43C17.5967 21.3633 17.7367 21.3467 17.89 21.38C18.0367 21.4 18.14 21.46 18.2 21.56C18.2667 21.66 18.3 21.79 18.3 21.95Z" fill="black"/>
<path d="M24.195 19.39L23.625 18.78L23.925 18.49C24.8517 17.6033 25.6584 16.9867 26.345 16.64C27.0384 16.2867 27.675 16.11 28.255 16.11C29.1284 16.11 29.8317 16.4 30.365 16.98C30.905 17.5533 31.175 18.3133 31.175 19.26V23.98C31.175 24.24 31.195 24.4233 31.235 24.53C31.275 24.6367 31.345 24.7133 31.445 24.76L31.675 24.86C31.8217 24.92 31.925 25 31.985 25.1C32.0517 25.1933 32.085 25.3033 32.085 25.43C32.085 25.61 32.0284 25.75 31.915 25.85C31.8017 25.95 31.6184 26 31.365 26H26.905C26.4184 26 26.175 25.7967 26.175 25.39C26.175 25.1633 26.2817 24.99 26.495 24.87L26.705 24.76C26.805 24.7067 26.875 24.63 26.915 24.53C26.955 24.4233 26.975 24.24 26.975 23.98V19.84C26.975 19.42 26.8784 19.1033 26.685 18.89C26.4917 18.6767 26.2184 18.57 25.865 18.57C25.645 18.57 25.415 18.6133 25.175 18.7C24.9417 18.7867 24.7317 18.9133 24.545 19.08L24.195 19.39ZM24.555 11.76V23.98C24.555 24.24 24.5717 24.4233 24.605 24.53C24.645 24.63 24.715 24.7067 24.815 24.76L25.025 24.87C25.2384 24.99 25.345 25.1633 25.345 25.39C25.345 25.7967 25.1017 26 24.615 26H20.155C19.9017 26 19.7184 25.95 19.605 25.85C19.4917 25.75 19.435 25.61 19.435 25.43C19.435 25.3033 19.465 25.1933 19.525 25.1C19.5917 25 19.6984 24.92 19.845 24.86L20.075 24.76C20.175 24.7133 20.245 24.6367 20.285 24.53C20.325 24.4233 20.345 24.24 20.345 23.98V13.94C20.345 13.74 20.3184 13.5967 20.265 13.51C20.2117 13.4233 20.1284 13.3633 20.015 13.33L19.785 13.26C19.6517 13.22 19.555 13.16 19.495 13.08C19.435 12.9933 19.405 12.8867 19.405 12.76C19.405 12.6067 19.445 12.4867 19.525 12.4C19.6117 12.3067 19.7684 12.2167 19.995 12.13L22.305 11.26C22.6317 11.1333 22.8917 11.0433 23.085 10.99C23.285 10.93 23.4817 10.9 23.675 10.9C23.9617 10.9 24.1784 10.9833 24.325 11.15C24.4784 11.31 24.555 11.5133 24.555 11.76Z" fill="black"/>
<path d="M43.0792 19.98C43.0792 20.4267 42.9559 20.7733 42.7092 21.02C42.4692 21.26 42.1259 21.38 41.6792 21.38H35.7292V20.39H38.3992C38.7526 20.39 38.9292 20.2233 38.9292 19.89C38.9292 19.0167 38.8292 18.3967 38.6292 18.03C38.4359 17.6567 38.1826 17.47 37.8692 17.47C37.6359 17.47 37.4259 17.5567 37.2392 17.73C37.0592 17.9033 36.9126 18.1733 36.7992 18.54C36.6926 18.9 36.6392 19.36 36.6392 19.92C36.6392 21.1467 36.9126 22.0433 37.4592 22.61C38.0059 23.1767 38.7526 23.46 39.6992 23.46C40.1592 23.46 40.5692 23.4033 40.9292 23.29C41.2959 23.17 41.6426 22.9467 41.9692 22.62C42.1559 22.4533 42.2959 22.3433 42.3892 22.29C42.4826 22.23 42.5759 22.2 42.6692 22.2C42.7959 22.2 42.8892 22.2633 42.9492 22.39C43.0092 22.5167 43.0392 22.6733 43.0392 22.86C43.0392 23.46 42.8359 24.0233 42.4292 24.55C42.0292 25.07 41.4726 25.49 40.7592 25.81C40.0459 26.1233 39.2159 26.28 38.2692 26.28C37.2559 26.28 36.3459 26.08 35.5392 25.68C34.7326 25.2733 34.0926 24.71 33.6192 23.99C33.1526 23.2633 32.9192 22.42 32.9192 21.46C32.9192 20.38 33.1359 19.44 33.5692 18.64C34.0026 17.8333 34.6292 17.21 35.4492 16.77C36.2759 16.33 37.2692 16.11 38.4292 16.11C39.4559 16.11 40.3126 16.2767 40.9992 16.61C41.6926 16.9433 42.2126 17.4033 42.5592 17.99C42.9059 18.57 43.0792 19.2333 43.0792 19.98Z" fill="black"/>
<path d="M49.8125 23.97C49.8125 24.2033 49.8459 24.3833 49.9125 24.51C49.9859 24.63 50.1092 24.7 50.2825 24.72L51.3125 24.85C51.4992 24.87 51.6325 24.9333 51.7125 25.04C51.7925 25.1467 51.8325 25.2733 51.8325 25.42C51.8325 25.8067 51.6025 26 51.1425 26H44.9525C44.7459 26 44.5792 25.9533 44.4525 25.86C44.3325 25.76 44.2725 25.6233 44.2725 25.45C44.2725 25.29 44.3125 25.1633 44.3925 25.07C44.4725 24.97 44.6059 24.89 44.7925 24.83L45.0825 24.75C45.2825 24.6833 45.4225 24.5933 45.5025 24.48C45.5825 24.3667 45.6225 24.2067 45.6225 24V18.84C45.6225 18.72 45.5892 18.6167 45.5225 18.53C45.4559 18.4367 45.3325 18.3467 45.1525 18.26L44.7425 18.09C44.5025 17.97 44.3359 17.86 44.2425 17.76C44.1559 17.6533 44.1125 17.5333 44.1125 17.4C44.1125 17.2467 44.1659 17.1233 44.2725 17.03C44.3859 16.93 44.5592 16.88 44.7925 16.88H46.4525L45.6325 17.19V16.9C45.6325 16.7667 45.5725 16.63 45.4525 16.49C45.3392 16.35 45.2025 16.19 45.0425 16.01C44.8892 15.83 44.7525 15.6133 44.6325 15.36C44.5125 15.1 44.4525 14.7867 44.4525 14.42C44.4525 13.5133 44.8092 12.7833 45.5225 12.23C46.2425 11.6767 47.2559 11.4 48.5625 11.4C49.3959 11.4 50.0992 11.5267 50.6725 11.78C51.2459 12.0333 51.6759 12.37 51.9625 12.79C52.2559 13.21 52.4025 13.6633 52.4025 14.15C52.4025 14.6967 52.2459 15.1133 51.9325 15.4C51.6192 15.6867 51.2192 15.83 50.7325 15.83C50.1792 15.83 49.7359 15.67 49.4025 15.35C49.0759 15.0233 48.9125 14.59 48.9125 14.05V13.19C48.9125 12.9233 48.8325 12.7267 48.6725 12.6C48.5125 12.4667 48.3125 12.4 48.0725 12.4C47.7859 12.4 47.5692 12.4867 47.4225 12.66C47.2825 12.8333 47.2125 13.0767 47.2125 13.39C47.2125 13.73 47.2892 14.0367 47.4425 14.31C47.5959 14.5833 47.7859 14.8333 48.0125 15.06C48.2392 15.28 48.4659 15.49 48.6925 15.69C48.9192 15.89 49.1059 16.0933 49.2525 16.3C49.4059 16.5 49.4825 16.71 49.4825 16.93V17.45L49.0625 16.88H51.3625C51.5625 16.88 51.7192 16.9233 51.8325 17.01C51.9525 17.0967 52.0125 17.2167 52.0125 17.37C52.0125 17.6167 51.8925 17.8233 51.6525 17.99C51.4192 18.15 51.0325 18.23 50.4925 18.23H49.8125V23.97Z" fill="black"/>
<path d="M63.1664 15.12L64.6564 15.33L62.0464 23.82C61.9864 24 61.9398 24.1767 61.9064 24.35C61.8731 24.5167 61.8564 24.7167 61.8564 24.95V25.38C61.8564 25.5867 61.7964 25.7433 61.6764 25.85C61.5631 25.95 61.4231 26 61.2564 26H57.7464C57.5664 26 57.4164 25.95 57.2964 25.85C57.1831 25.7433 57.1264 25.5867 57.1264 25.38V24.95C57.1264 24.8233 57.1164 24.71 57.0964 24.61C57.0764 24.51 57.0364 24.35 56.9764 24.13L54.0564 14.2C53.9964 13.9667 53.9198 13.7967 53.8264 13.69C53.7331 13.5833 53.6031 13.4967 53.4364 13.43L53.0664 13.28C52.9264 13.22 52.8264 13.1333 52.7664 13.02C52.7064 12.9 52.6764 12.77 52.6764 12.63C52.6764 12.4367 52.7398 12.2833 52.8664 12.17C52.9998 12.0567 53.1998 12 53.4664 12H59.0764C59.3564 12 59.5598 12.0567 59.6864 12.17C59.8131 12.2833 59.8764 12.4367 59.8764 12.63C59.8764 12.93 59.7398 13.13 59.4664 13.23L59.1064 13.34C58.9464 13.3933 58.8464 13.5067 58.8064 13.68C58.7731 13.8533 58.7964 14.0833 58.8764 14.37L61.5764 23.79L60.1464 24.79L63.1664 15.12ZM70.2264 12.65C70.2264 12.4433 70.2898 12.2833 70.4164 12.17C70.5498 12.0567 70.7531 12 71.0264 12H74.0064C74.2864 12 74.4898 12.0567 74.6164 12.17C74.7498 12.2833 74.8164 12.4433 74.8164 12.65C74.8164 12.79 74.7798 12.9067 74.7064 13C74.6398 13.0933 74.5131 13.1833 74.3264 13.27L74.0464 13.41C73.7931 13.5367 73.5764 13.7133 73.3964 13.94C73.2231 14.1667 73.0798 14.5033 72.9664 14.95L70.6164 23.82C70.5431 24.1 70.4931 24.3133 70.4664 24.46C70.4398 24.6 70.4264 24.7633 70.4264 24.95V25.38C70.4264 25.5867 70.3664 25.7433 70.2464 25.85C70.1331 25.95 69.9931 26 69.8264 26H66.2264C66.0598 26 65.9164 25.95 65.7964 25.85C65.6831 25.7433 65.6264 25.5867 65.6264 25.38V24.95C65.6264 24.8433 65.6164 24.74 65.5964 24.64C65.5764 24.5333 65.5298 24.3633 65.4564 24.13L62.6664 14.2C62.5798 13.8867 62.5031 13.6833 62.4364 13.59C62.3764 13.49 62.2898 13.4167 62.1764 13.37L61.8264 13.22C61.6798 13.16 61.5731 13.0833 61.5064 12.99C61.4398 12.8967 61.4064 12.78 61.4064 12.64C61.4064 12.44 61.4731 12.2833 61.6064 12.17C61.7398 12.0567 61.9431 12 62.2164 12H67.6364C67.9098 12 68.1098 12.0567 68.2364 12.17C68.3698 12.2833 68.4364 12.44 68.4364 12.64C68.4364 12.7933 68.3964 12.9233 68.3164 13.03C68.2431 13.13 68.1231 13.21 67.9564 13.27L67.6664 13.37C67.5064 13.4233 67.4064 13.52 67.3664 13.66C67.3264 13.8 67.3531 14.04 67.4464 14.38L70.0364 23.83L68.7264 24.79L71.4464 14.76C71.5398 14.42 71.5431 14.1333 71.4564 13.9C71.3764 13.6667 71.1764 13.48 70.8564 13.34L70.6164 13.24C70.4831 13.1733 70.3831 13.0933 70.3164 13C70.2564 12.9 70.2264 12.7833 70.2264 12.65Z" fill="black"/>
<path d="M79.516 16.96V23.98C79.516 24.24 79.5326 24.4233 79.566 24.53C79.606 24.6367 79.676 24.7133 79.776 24.76L80.006 24.86C80.1526 24.92 80.256 25 80.316 25.1C80.3826 25.1933 80.416 25.3033 80.416 25.43C80.416 25.61 80.3593 25.75 80.246 25.85C80.1326 25.95 79.9493 26 79.696 26H75.116C74.8626 26 74.6793 25.95 74.566 25.85C74.4526 25.75 74.396 25.61 74.396 25.43C74.396 25.3033 74.426 25.1933 74.486 25.1C74.5526 25 74.6593 24.92 74.806 24.86L75.036 24.76C75.136 24.7133 75.206 24.6367 75.246 24.53C75.286 24.4233 75.306 24.24 75.306 23.98V19.14C75.306 18.94 75.2793 18.7967 75.226 18.71C75.1726 18.6233 75.0893 18.5633 74.976 18.53L74.746 18.47C74.6126 18.4233 74.516 18.36 74.456 18.28C74.396 18.1933 74.366 18.0867 74.366 17.96C74.366 17.8067 74.406 17.6867 74.486 17.6C74.5726 17.5133 74.7293 17.4233 74.956 17.33L77.266 16.46C77.606 16.3267 77.8726 16.2333 78.066 16.18C78.266 16.1267 78.4426 16.1 78.596 16.1C78.9026 16.1 79.1326 16.1833 79.286 16.35C79.4393 16.51 79.516 16.7133 79.516 16.96ZM77.196 15.24C76.4626 15.24 75.8793 15.0667 75.446 14.72C75.0126 14.3667 74.796 13.8933 74.796 13.3C74.796 12.7067 75.0126 12.24 75.446 11.9C75.8793 11.5533 76.4626 11.38 77.196 11.38C77.936 11.38 78.5193 11.5533 78.946 11.9C79.3793 12.24 79.596 12.7067 79.596 13.3C79.596 13.8933 79.3793 14.3667 78.946 14.72C78.5193 15.0667 77.936 15.24 77.196 15.24Z" fill="black"/>
<path d="M86.4691 11.76V23.98C86.4691 24.24 86.4891 24.4233 86.5291 24.53C86.5691 24.6367 86.6391 24.7133 86.7391 24.76L86.9691 24.86C87.1158 24.92 87.2191 25 87.2791 25.1C87.3458 25.1933 87.3791 25.3033 87.3791 25.43C87.3791 25.61 87.3224 25.75 87.2091 25.85C87.0958 25.95 86.9124 26 86.6591 26H82.0791C81.8258 26 81.6424 25.95 81.5291 25.85C81.4158 25.75 81.3591 25.61 81.3591 25.43C81.3591 25.3033 81.3891 25.1933 81.4491 25.1C81.5158 25 81.6224 24.92 81.7691 24.86L81.9991 24.76C82.0991 24.7133 82.1691 24.6367 82.2091 24.53C82.2491 24.4233 82.2691 24.24 82.2691 23.98V13.94C82.2691 13.74 82.2391 13.5967 82.1791 13.51C82.1258 13.4233 82.0458 13.3633 81.9391 13.33L81.7091 13.26C81.5691 13.22 81.4691 13.16 81.4091 13.08C81.3491 12.9933 81.3191 12.8867 81.3191 12.76C81.3191 12.6067 81.3591 12.4867 81.4391 12.4C81.5258 12.3067 81.6824 12.2167 81.9091 12.13L84.2191 11.26C84.5658 11.1267 84.8358 11.0333 85.0291 10.98C85.2291 10.9267 85.4058 10.9 85.5591 10.9C85.8591 10.9 86.0858 10.9833 86.2391 11.15C86.3924 11.31 86.4691 11.5133 86.4691 11.76Z" fill="black"/>
<path d="M93.4222 11.76V23.98C93.4222 24.24 93.4422 24.4233 93.4822 24.53C93.5222 24.6367 93.5922 24.7133 93.6922 24.76L93.9222 24.86C94.0689 24.92 94.1722 25 94.2322 25.1C94.2989 25.1933 94.3322 25.3033 94.3322 25.43C94.3322 25.61 94.2755 25.75 94.1622 25.85C94.0489 25.95 93.8655 26 93.6122 26H89.0322C88.7789 26 88.5955 25.95 88.4822 25.85C88.3689 25.75 88.3122 25.61 88.3122 25.43C88.3122 25.3033 88.3422 25.1933 88.4022 25.1C88.4689 25 88.5755 24.92 88.7222 24.86L88.9522 24.76C89.0522 24.7133 89.1222 24.6367 89.1622 24.53C89.2022 24.4233 89.2222 24.24 89.2222 23.98V13.94C89.2222 13.74 89.1922 13.5967 89.1322 13.51C89.0789 13.4233 88.9989 13.3633 88.8922 13.33L88.6622 13.26C88.5222 13.22 88.4222 13.16 88.3622 13.08C88.3022 12.9933 88.2722 12.8867 88.2722 12.76C88.2722 12.6067 88.3122 12.4867 88.3922 12.4C88.4789 12.3067 88.6355 12.2167 88.8622 12.13L91.1722 11.26C91.5189 11.1267 91.7889 11.0333 91.9822 10.98C92.1822 10.9267 92.3589 10.9 92.5122 10.9C92.8122 10.9 93.0389 10.9833 93.1922 11.15C93.3455 11.31 93.4222 11.5133 93.4222 11.76Z" fill="black"/>
<path d="M102.685 23.97L100.405 27.77L95.8653 18.36C95.7453 18.1067 95.6253 17.9267 95.5053 17.82C95.392 17.7133 95.242 17.6167 95.0553 17.53C94.9287 17.47 94.8353 17.3967 94.7753 17.31C94.7153 17.2233 94.6853 17.11 94.6853 16.97C94.6853 16.79 94.7453 16.65 94.8653 16.55C94.992 16.45 95.1653 16.4 95.3853 16.4H100.765C100.979 16.4 101.145 16.45 101.265 16.55C101.392 16.65 101.455 16.79 101.455 16.97C101.455 17.11 101.419 17.2233 101.345 17.31C101.272 17.39 101.152 17.4567 100.985 17.51L100.705 17.59C100.445 17.67 100.292 17.8 100.245 17.98C100.199 18.1533 100.265 18.4533 100.445 18.88L102.685 23.97ZM100.465 26.87L100.755 26.19L101.275 25.21L103.715 19.08C103.889 18.6533 103.949 18.3333 103.895 18.12C103.849 17.9 103.692 17.7467 103.425 17.66L103.085 17.55C102.925 17.4967 102.805 17.4233 102.725 17.33C102.645 17.23 102.605 17.11 102.605 16.97C102.605 16.79 102.665 16.65 102.785 16.55C102.912 16.45 103.079 16.4 103.285 16.4H106.075C106.295 16.4 106.465 16.45 106.585 16.55C106.712 16.65 106.775 16.79 106.775 16.97C106.775 17.0833 106.742 17.1867 106.675 17.28C106.609 17.3733 106.499 17.46 106.345 17.54C106.085 17.6667 105.869 17.8267 105.695 18.02C105.522 18.2067 105.349 18.5167 105.175 18.95L102.115 26.42C101.649 27.5533 101.229 28.4267 100.855 29.04C100.489 29.6533 100.085 30.0767 99.6453 30.31C99.212 30.55 98.6653 30.67 98.0053 30.67C97.052 30.67 96.292 30.4133 95.7253 29.9C95.1653 29.3933 94.8853 28.7533 94.8853 27.98C94.8853 27.4267 95.0253 26.99 95.3053 26.67C95.592 26.35 95.972 26.19 96.4453 26.19C96.912 26.19 97.2653 26.32 97.5053 26.58C97.752 26.8467 97.972 27.2 98.1653 27.64L98.3753 28.12C98.4687 28.34 98.5753 28.5167 98.6953 28.65C98.822 28.7833 98.952 28.85 99.0853 28.85C99.212 28.85 99.3287 28.8067 99.4353 28.72C99.5487 28.6333 99.6853 28.4467 99.8453 28.16C100.005 27.88 100.212 27.45 100.465 26.87Z" fill="black"/>
<path d="M4.96262 3.6211C5.51156 2.98606 5.40399 2.22232 7.34068 1.71919C9.32841 1.2028 9.6229 1.91906 10.3245 2.22812M4.96262 3.6211C4.69516 3.9305 4.27186 4.20935 3.38035 4.41263C1.92965 4.74341 1.14816 5.99128 1.50697 7.37241C2.20846 10.0726 4.65747 9.36117 5.48684 10.6188M4.96262 3.6211C4.7768 3.84375 4.46536 4.52074 4.7061 5.44744M10.3245 2.22812C10.6396 2.36689 11.0368 2.42356 11.7062 2.24965C12.5613 2.02751 14.4103 1.97518 14.9633 3.87658C15.777 6.67426 13.2822 7.14547 13.1258 8.63431M10.3245 2.22812C10.6325 2.44932 11.2721 3.05679 11.3668 3.71706M11.6369 5.31147C11.6883 5.69444 11.6907 6.59112 11.2885 7.11413M5.11121 7.00678C5.34696 7.42113 5.93137 8.27757 6.38297 8.38853M5.48684 10.6188C5.57433 10.7515 5.64379 10.9061 5.69128 11.0889L6.14268 12.8264C7.51332 10.5204 11.8685 9.53166 13.6597 11.0638C13.5867 10.9306 13.2975 9.73113 13.162 9.14805C13.1189 8.9626 13.1091 8.7927 13.1258 8.63431M5.48684 10.6188C6.46399 8.7004 11.0784 7.4065 13.1258 8.63431" stroke="black" stroke-width="1.1" stroke-linecap="round" stroke-linejoin="round"/>
</svg>
